<svg width="2341" height="855" viewBox="0 0 2341 855" fill="none" xmlns="http://www.w3.org/2000/svg">
<rect x="2139.39" y="252.545" width="121.674" height="440" fill="#F29D73" stroke="#EE7547" stroke-width="15"/>
<path d="M2135.5 252.545L2075.01 176.545H2325.42L2264.74 252.545H2135.5Z" fill="#F29D73" stroke="#EE7547" stroke-width="15"/>
<path d="M2264.95 692.545L2325.44 768.545H2075.04L2135.71 692.545H2264.95Z" fill="#F29D73" stroke="#EE7547" stroke-width="15"/>
<rect x="1820.94" y="252.545" width="121.674" height="440" fill="#F29D73" stroke="#EE7547" stroke-width="15"/>
<path d="M1817.05 252.545L1756.56 176.545H2006.97L1946.29 252.545H1817.05Z" fill="#F29D73" stroke="#EE7547" stroke-width="15"/>
<path d="M1946.5 692.545L2006.99 768.545H1756.58L1817.26 692.545H1946.5Z" fill="#F29D73" stroke="#EE7547" stroke-width="15"/>
<rect x="1360.98" y="252.545" width="119.762" height="440" fill="#F29D73" stroke="#EE7547" stroke-width="15"/>
<path d="M1357.12 252.545L1297.47 176.545H1544.21L1484.39 252.545H1357.12Z" fill="#F29D73" stroke="#EE7547" stroke-width="15"/>
<path d="M1484.59 692.545L1544.24 768.545H1297.5L1357.33 692.545H1484.59Z" fill="#F29D73" stroke="#EE7547" stroke-width="15"/>
<rect x="852.926" y="252.545" width="119.762" height="440" fill="#F29D73" stroke="#EE7547" stroke-width="15"/>
<path d="M849.071 252.545L789.421 176.545H1036.16L976.335 252.545H849.071Z" fill="#F29D73" stroke="#EE7547" stroke-width="15"/>
<path d="M976.54 692.545L1036.19 768.545H789.45L849.276 692.545H976.54Z" fill="#F29D73" stroke="#EE7547" stroke-width="15"/>
<rect x="398.387" y="252.545" width="121.674" height="440" fill="#F29D73" stroke="#EE7547" stroke-width="15"/>
<path d="M394.502 252.545L334.005 176.545H584.414L523.739 252.545H394.502Z" fill="#F29D73" stroke="#EE7547" stroke-width="15"/>
<path d="M523.945 692.545L584.442 768.545H334.033L394.708 692.545H523.945Z" fill="#F29D73" stroke="#EE7547" stroke-width="15"/>
<rect x="79.9375" y="252.545" width="121.674" height="440" fill="#F29D73" stroke="#EE7547" stroke-width="15"/>
<path d="M76.0527 252.545L15.5561 176.545H265.965L205.29 252.545H76.0527Z" fill="#F29D73" stroke="#EE7547" stroke-width="15"/>
<path d="M205.496 692.545L265.993 768.545H15.5842L76.2592 692.545H205.496Z" fill="#F29D73" stroke="#EE7547" stroke-width="15"/>
<path d="M15.4127 783.545H2317.59L2296.51 810.417L2292.89 815.045L2296.51 819.673L2317.59 846.545H15.4127L36.4859 819.673L40.1154 815.045L36.4859 810.417L15.4127 783.545Z" fill="#F29D73" stroke="#EE7547" stroke-width="15"/>
<path d="M10.6907 7.54492H2322.31L2295.36 81.9925L2294.44 84.5449L2295.36 87.0974L2322.31 161.545H10.6907L37.6365 87.0974L38.5603 84.5449L37.6365 81.9924L10.6907 7.54492Z" fill="#F29D73" stroke="#EE7547" stroke-width="15"/>
</svg>
