<svg width="2333" height="1120" viewBox="0 0 2333 1120" fill="none" xmlns="http://www.w3.org/2000/svg">
<path d="M1792.89 441.608L2226.29 441.618L1792.9 99.6001L1792.89 441.608Z" fill="#F29D73" stroke="#EE7547" stroke-width="15"/>
<path d="M1786.14 60.5316L1750.53 66.0991L2282.88 484.893L2321.84 435.379L1789.49 16.5845L1792.46 52.5032L1793.03 59.4542L1786.14 60.5316Z" fill="#F29D73" stroke="#EE7547" stroke-width="15"/>
<rect x="2130.39" y="595.545" width="121.674" height="440" fill="#F29D73" stroke="#EE7547" stroke-width="15"/>
<path d="M2126.5 595.545L2066.01 519.545H2316.42L2255.74 595.545H2126.5Z" fill="#F29D73" stroke="#EE7547" stroke-width="15"/>
<path d="M2255.95 1035.54L2316.44 1111.54H2066.04L2126.71 1035.54H2255.95Z" fill="#F29D73" stroke="#EE7547" stroke-width="15"/>
<rect x="1811.94" y="595.545" width="121.674" height="440" fill="#F29D73" stroke="#EE7547" stroke-width="15"/>
<path d="M1808.05 595.545L1747.56 519.545H1997.97L1937.29 595.545H1808.05Z" fill="#F29D73" stroke="#EE7547" stroke-width="15"/>
<path d="M1937.5 1035.54L1997.99 1111.54H1747.58L1808.26 1035.54H1937.5Z" fill="#F29D73" stroke="#EE7547" stroke-width="15"/>
<rect x="398.387" y="595.545" width="121.674" height="440" fill="#F29D73" stroke="#EE7547" stroke-width="15"/>
<path d="M394.502 595.545L334.005 519.545H584.414L523.739 595.545H394.502Z" fill="#F29D73" stroke="#EE7547" stroke-width="15"/>
<path d="M523.945 1035.54L584.442 1111.54H334.033L394.708 1035.54H523.945Z" fill="#F29D73" stroke="#EE7547" stroke-width="15"/>
<rect x="79.9375" y="595.545" width="121.674" height="440" fill="#F29D73" stroke="#EE7547" stroke-width="15"/>
<path d="M76.0527 595.545L15.5561 519.545H265.965L205.29 595.545H76.0527Z" fill="#F29D73" stroke="#EE7547" stroke-width="15"/>
<path d="M205.496 1035.54L265.993 1111.54H15.5842L76.2592 1035.54H205.496Z" fill="#F29D73" stroke="#EE7547" stroke-width="15"/>
<rect x="1263.39" y="595.545" width="121.674" height="440" fill="#F29D73" stroke="#EE7547" stroke-width="15"/>
<path d="M1259.5 595.545L1199.01 519.545H1449.41L1388.74 595.545H1259.5Z" fill="#F29D73" stroke="#EE7547" stroke-width="15"/>
<path d="M1388.95 1035.54L1449.44 1111.54H1199.03L1259.71 1035.54H1388.95Z" fill="#F29D73" stroke="#EE7547" stroke-width="15"/>
<rect x="944.938" y="595.545" width="121.674" height="440" fill="#F29D73" stroke="#EE7547" stroke-width="15"/>
<path d="M941.053 595.545L880.556 519.545H1130.96L1070.29 595.545H941.053Z" fill="#F29D73" stroke="#EE7547" stroke-width="15"/>
<path d="M1070.5 1035.54L1130.99 1111.54H880.584L941.259 1035.54H1070.5Z" fill="#F29D73" stroke="#EE7547" stroke-width="15"/>
<path d="M1747.41 441.545H2316.59L2295.52 468.417L2291.89 473.045L2295.52 477.673L2316.59 504.545H1747.41L1768.49 477.673L1772.12 473.045L1768.49 468.417L1747.41 441.545Z" fill="#F29D73" stroke="#EE7547" stroke-width="15"/>
<path d="M880.413 441.545H1449.69L1428.62 468.417L1424.99 473.045L1428.62 477.673L1449.69 504.545H880.413L901.486 477.673L905.115 473.045L901.486 468.417L880.413 441.545Z" fill="#F29D73" stroke="#EE7547" stroke-width="15"/>
<path d="M539.484 441.563L106.076 441.573L539.47 99.5552L539.484 441.563Z" fill="#F29D73" stroke="#EE7547" stroke-width="15"/>
<path d="M546.226 60.4867L581.835 66.0542L49.4844 484.848L10.5318 435.334L542.882 16.5396L539.91 52.4582L539.335 59.4092L546.226 60.4867Z" fill="#F29D73" stroke="#EE7547" stroke-width="15"/>
<path d="M15.4127 441.545H584.588L563.516 468.417L559.886 473.045L563.516 477.673L584.588 504.545H15.4127L36.4859 477.673L40.1154 473.045L36.4859 468.417L15.4127 441.545Z" fill="#F29D73" stroke="#EE7547" stroke-width="15"/>
<rect x="1105.5" y="314.731" width="120" height="111.814" fill="#F29D73" stroke="#EE7547" stroke-width="15"/>
<path d="M1101.49 299.817L1043.99 223.04H1287.01L1229.51 299.817H1101.49Z" fill="#F29D73" stroke="#EE7547" stroke-width="15"/>
<path d="M1126.75 140.545L1090.86 208.04H1240.06L1203.66 140.545H1126.75Z" fill="#F29D73" stroke="#EE7547" stroke-width="15"/>
</svg>
